<svg xmlns="http://www.w3.org/2000/svg" width="450" height="450" viewBox="0 0 450 450">
  <g id="Group_24" data-name="Group 24" transform="translate(-3725 1117)">
    <rect id="Rectangle_4" data-name="Rectangle 4" width="450" height="450" transform="translate(3725 -1117)" fill="none"/>
    <g id="Group_15" data-name="Group 15" transform="translate(-664.75 1458.299) rotate(-20)">
      <path id="Path_43" data-name="Path 43" d="M709.87,185.18c2.37-2.82,8-.52,7.37,3.25a5.12,5.12,0,0,1-4.17,3.88,4.21,4.21,0,0,1-4.63-2.69,5.5,5.5,0,0,1,1.15-6.07c.6-.55-.29-1.43-.88-.89-3.69,3.39-1.84,11.06,3.67,11a6.51,6.51,0,0,0,5.88-4.15,4.94,4.94,0,0,0-2.36-5.92c-2.14-1.25-5.22-1.28-6.92.75-.51.61.37,1.5.89.88Z" transform="translate(4473.842 -891.91)" fill="#231f20"/>
      <path id="Path_44" data-name="Path 44" d="M728.06,183.1a6.84,6.84,0,0,0,3,7.38,5.9,5.9,0,0,0,7.39-.53,7.3,7.3,0,0,0,2.07-6.8,5.91,5.91,0,0,0-5.32-4.4,6.77,6.77,0,0,0-6.85,3.55c-.33.73.75,1.37,1.08.64,1.67-3.65,7.84-4.17,9.6-.32a5.84,5.84,0,0,1-.82,5.72,4.6,4.6,0,0,1-5.62,1.56c-2.39-1.07-4.11-3.86-3.34-6.47a.622.622,0,0,0-1.2-.33Z" transform="translate(4473.842 -891.91)" fill="#231f20"/>
      <path id="Path_45" data-name="Path 45" d="M765.63,190.25a10.41,10.41,0,0,1-3.58-13.79c2.76-4.6,9.33-6,13.87-3.33a.63.63,0,0,0,.91-.71c-1.27-7,1.31-15.49,8.11-18.7,5.78-2.72,14.17-.3,16.25,6.12a.62.62,0,0,0,.91.37c3.86-2.42,6.15-6.4,8.46-10.19s5-8.1,9.63-9.49c5.1-1.53,10.61.86,14.33,4.35,3.41,3.19,5.17,8.77,9.83,10.46,2.79,1,5.61-.1,8.33-.79a9.91,9.91,0,0,1,7.89,1c4.6,2.76,6.86,8.57,4.51,13.54a12.55,12.55,0,0,1-5.17,5.5,13.15,13.15,0,0,1-7.48,1.56c-1.92-.08-4.43-.2-5.74,1.5a4.5,4.5,0,0,0-.74,2.93,17.6,17.6,0,0,1-.34,3.76c-2.22,10.33-14.22,17.66-24.34,14.17a.64.64,0,0,0-.7.29c-2.64,3.92-2,8.83-3.51,13.13a7.25,7.25,0,0,1-6.11,4.88,31.171,31.171,0,0,1-9.64-.21,37.051,37.051,0,0,1-9.51-2.87c-2.51-1.15-5-3.13-7.81-3.39s-4.84,2.16-7.58,2.58a10.27,10.27,0,0,1-7.23-2c-5.88-4.14-6.4-12-6.44-18.6a.63.63,0,0,0-1.25,0c0,6,.43,12.76,4.58,17.47,3.41,3.87,9.06,5.81,13.76,3.17,1.58-.89,2.92-1.7,4.81-1.27s3.6,1.66,5.34,2.53a38,38,0,0,0,9.26,3.24,37.229,37.229,0,0,0,10.21.74c2.71-.19,5.46-.87,7.25-3.07,3.63-4.44,1.78-11,4.95-15.72l-.71.29c9.19,3.16,19.75-2.05,24.17-10.42a18.1,18.1,0,0,0,2-6.54c.13-1.26-.25-3,.39-4.1s2.47-1.3,3.75-1.3c2.65,0,5,.16,7.56-.86a14.129,14.129,0,0,0,5.79-4.31,11.57,11.57,0,0,0,.68-13.8,12.78,12.78,0,0,0-5.62-4.69,11.58,11.58,0,0,0-7.75-.21c-3.16.84-6.29,1.86-9.11-.42-2.17-1.75-3.47-4.32-5.12-6.51a19.16,19.16,0,0,0-12.89-7.64c-5.73-.6-10.13,2.75-13.24,7.23s-5.3,10-10.09,13l.92.38c-1.76-5.44-7.53-8.4-13-8.11-6.2.32-10.92,4.89-12.93,10.55a20.909,20.909,0,0,0-.8,10.81l.92-.71c-5.12-3.06-12.47-1.4-15.58,3.78s-1.08,12.44,4,15.5a.63.63,0,0,0,.63-1.08Z" transform="translate(4473.842 -891.91)" fill="#231f20"/>
    </g>
    <circle id="Ellipse_39" data-name="Ellipse 39" cx="27.34" cy="27.34" r="27.34" transform="translate(3835.64 -827.579)" fill="#a9d767"/>
    <circle id="Ellipse_40" data-name="Ellipse 40" cx="72.79" cy="72.79" r="72.79" transform="translate(3792.59 -1011.208)" fill="rgba(135,196,242,0.3)"/>
    <g id="Group_23" data-name="Group 23">
      <path id="Path_179" data-name="Path 179" d="M569,308.72s4.64,42.68,92.33,1C661.32,309.74,626.2,283.57,569,308.72Z" transform="translate(3485.91 -1074.789)" fill="#a9d767"/>
      <path id="Path_186" data-name="Path 186" d="M536.43,338.07c11.37-2.06,18.24-13.79,19-24.6.49-7.53-1.35-15-3.81-22-2.61-7.5-5.75-14.82-8.7-22.18l-10.22-25.5a.63.63,0,0,0-1.21,0c-7.36,21.18-2.88,45.7,10.53,63.53a64.6,64.6,0,0,0,13.28,13.19c.42.32.89-.12.94-.54.75-6.31,4.3-11.86,9-16a38.14,38.14,0,0,1,18.47-8.37c7.61-1.37,15.43-1.08,23.11-.5q12.38.93,24.64,2.88,13.65,2.19,27.07,5.63l-.28-1a61.45,61.45,0,0,1-29,16.61,60,60,0,0,1-33.53-1.41,61.278,61.278,0,0,1-15.15-7.54,58.814,58.814,0,0,1-6.73-5.36,9.639,9.639,0,0,1-2.78-3.38c-.63-1.68.3-3.16,1.29-4.47a41.27,41.27,0,0,0,7.22-14.32,47.907,47.907,0,0,0,1.32-16.22c-1.13-13.46-7.35-25.86-14.45-37.13a.63.63,0,0,0-1.14.15,40,40,0,0,0,2,30.22c1.41,2.91,3.24,6.19,5.67,8.37,2.26,2,5.28,1.54,7.46-.35,2.78-2.4,3.08-6.32,3.79-9.68a30.24,30.24,0,0,1,9.72-16.34,30.73,30.73,0,0,1,20.21-7.84l-.54-.94a78.08,78.08,0,0,1-35.25,33.9c-.72.34-.09,1.42.63,1.08a79.2,79.2,0,0,0,29.77-24.81,77.459,77.459,0,0,0,5.93-9.54.63.63,0,0,0-.54-.94c-11.86,0-23.19,7.25-28.54,17.76a31.529,31.529,0,0,0-2.85,8.62c-.63,3.4-1.37,7.75-5.17,9s-6.17-3.52-7.72-6.14a37.658,37.658,0,0,1-4-9.38,38.46,38.46,0,0,1,.64-22.63l-1.14.14c6.69,10.62,12.65,22.26,14.11,34.89a47.119,47.119,0,0,1-1.12,17.5,37.83,37.83,0,0,1-3.11,8c-1.33,2.52-3.18,4.58-4.67,7s-1.09,4.74.77,6.81a44.071,44.071,0,0,0,6.27,5.46,62.213,62.213,0,0,0,14.7,8.22,61.37,61.37,0,0,0,33.51,3.34,62.66,62.66,0,0,0,33.32-17.75.62.62,0,0,0-.27-1,299.88,299.88,0,0,0-50.59-8.45c-14.62-1.17-30.88-1.4-42.93,8.3-5.51,4.42-9.54,10.6-10.39,17.69l.94-.54c-17.7-13.07-27.59-35.38-26.67-57.23a63,63,0,0,1,3.44-18.08h-1.21c5.78,14.41,11.75,28.76,17.3,43.26,4.69,12.23,8.55,26.36,1.69,38.55-3.08,5.47-8,9.83-14.33,11-.79.15-.46,1.35.33,1.21Z" transform="translate(3485.91 -1074.789)" fill="#231f20"/>
    </g>
    <path id="Path_187" data-name="Path 187" d="M831.72,237.45l27.63,13.23c.72.34,1.36-.73.63-1.08l-27.63-13.23C831.63,236.02,830.99,237.1,831.72,237.45Z" transform="translate(3057.91 -1096.789)" fill="#231f20"/>
    <path id="Path_188" data-name="Path 188" d="M841.32,218.41l25.18,10c.75.3,1.07-.91.33-1.2l-25.18-10C840.91,216.91,840.58,218.12,841.32,218.41Z" transform="translate(3057.91 -1096.789)" fill="#231f20"/>
    <path id="Path_189" data-name="Path 189" d="M845.06,251.05a95.331,95.331,0,0,0,11.45-35.32c.09-.8-1.16-.8-1.25,0A93.661,93.661,0,0,1,844,250.42a.63.63,0,0,0,1.08.63Z" transform="translate(3057.91 -1096.789)" fill="#231f20"/>
    <path id="Path_198" data-name="Path 198" d="M792.56,114.89a84.81,84.81,0,0,0-19.91,1.93,83.233,83.233,0,0,0-9.56,2.7,44.43,44.43,0,0,0-7.91,3.36c-3.95,2.31-7.41,6.55-5,11.24a13.769,13.769,0,0,0,4.92,4.82c2.76,1.79,5.72,3.29,8.61,4.84q10.5,5.67,21.33,10.7l.15-1.14L738.5,172.75l.77.77,8.14-44.86a.64.64,0,0,0-.44-.77c-4.81-1.4-9.41,1.17-13,4.13a73.555,73.555,0,0,0-10.54,10.85,84.942,84.942,0,0,0-14.3,26c-3.71,11-5,22.64-6.52,34.08l-5,36.47-4.93,36.22-.6,4.4a12.651,12.651,0,0,0-.22,3.68c.33,2.13,2,3.2,3.86,3.95a83.893,83.893,0,0,0,16.44,4.63c2.72.49,5.46.86,8.2,1.1,1.39.12,2.78.21,4.18.27,1.13,0,2.08.38,2.74-.64,2.35-3.62,4.63-8.4,1.87-12.44a4.89,4.89,0,0,0-8.47.17,4.631,4.631,0,0,0,4,7c5,.26,5.69-5.75,6.75-9.36l5.15-17.51L747,225.61l2.5-8.51h-1.2c3.06,17.66,6.29,35.32,10.7,52.7,4.35,17.13,9.85,34,17.47,50a181.748,181.748,0,0,0,15,25.86.64.64,0,0,0,1.08,0l22.12-31.5c6-8.58,13.72-17.76,14.08-28.76a19,19,0,0,0-5-14,.65.65,0,0,0-.76-.09,5.36,5.36,0,0,0-2.82,3.48c-.32,1.3,0,2.29,1.44,2.56a3.51,3.51,0,0,0,3.16-1.24,4.82,4.82,0,0,0,.59-4.35,51.322,51.322,0,0,0-2.52-6.43l-2.75-6.73-5.51-13.45a.64.64,0,0,0-.77-.44,6.93,6.93,0,0,0-4.87,5.81,2.77,2.77,0,0,0,.77,2.67,2.93,2.93,0,0,0,2.87.18c2.8-1.2,2-4.65,1.11-6.88-1.53-4.09-3.11-8.16-4.67-12.24-.93-2.44-2-5.52-4.75-6.48a4.08,4.08,0,0,0-5.11,2.63c-.54,2.37,2,3.55,4,2.92,2.72-.88,3.2-3.78,2.78-6.29-.38-2.26-1.13-4.48-1.73-6.68l-1.77-6.49-3.81-14a.64.64,0,0,0-.77-.44,8.7,8.7,0,0,0-5.41,4.88c-.79,1.81-1.44,4.54.78,5.52a4.67,4.67,0,0,0,5.24-1.61c1.76-2.27,1-5.51.12-8-1.22-3.54-2.56-7-3.84-10.56-1.13-3.1-2.09-6.33-3.5-9.32-1-2-2.55-4.31-4.94-4.69a4.72,4.72,0,0,0-4.75,2.58,2.86,2.86,0,0,0-.13,2.36,2.51,2.51,0,0,0,2.44,1.38,6.75,6.75,0,0,0,5.92-3.18c1.53-2.39,1.4-5.51.53-8.11-1.07-3.24-4-6.07-2.09-9.58.73-1.35,1.68-2.58,2.47-3.89q1.33-2.2,2.44-4.52a55.689,55.689,0,0,0,5.37-28.13c-.15-1.89-.72-4.09-.14-5.94s2.39-2.7,4.13-3.17a28.28,28.28,0,0,1,10.33-.62,32.28,32.28,0,0,1,18.9,8.8l.13-1c-6.64,4.94-14.49,7.92-21.15,12.82-5.51,4-10.5,9.68-11.48,16.68-.57,4.13.38,8.25,1.51,12.2,1.27,4.51,2.62,9,3.94,13.49l8,27.15,15.82,54,4,13.58,2,6.79a33.632,33.632,0,0,0,1.85,5.45c1.78,3.59,5.38,4.47,8.95,5.49q6.57,1.89,13.22,3.57A442.605,442.605,0,0,0,911.57,304c2.27.29,4.53.56,6.8.81.51.06.73-.56.54-.94-8.74-17.38-17.48-34.77-27.16-51.66-4.82-8.43-9.88-16.72-15.27-24.8-5.24-7.84-10.94-15.32-16.57-22.88-6.12-8.21-11.95-16.83-15-26.71l-1,.6c22.65,20.45,54.88,20.87,83.38,25.14a150.81,150.81,0,0,1,26.63,6.14.63.63,0,0,0,.79-.61l.87-28.51a.62.62,0,0,0-.46-.6c-5.75-1-10.36-6.88-16.61-5.45a5.14,5.14,0,0,0-4.13,4,5.21,5.21,0,0,0,1.38,4.78,3.39,3.39,0,0,0,4.53-.12,5.48,5.48,0,0,0,1.28-5.49c-.74-2.33-3-3.84-5.09-4.85-3.13-1.51-6.42-2.7-9.61-4.06q-19.85-8.46-39.05-18.35c-6.18-3.18-12.42-6.33-18.31-10a58.8,58.8,0,0,1-8.32-6.15c-2.57-2.31-4.89-4.87-7.32-7.32A50.891,50.891,0,0,0,837,115.44a48.16,48.16,0,0,0-20.37-3.51c-.81,0-.81,1.29,0,1.25a47.15,47.15,0,0,1,31.58,10.27c4.7,3.79,8.45,8.6,13,12.52a83.639,83.639,0,0,0,14.57,9.54q16.8,9.15,34.19,17.15,8.77,4.05,17.67,7.82c2.73,1.16,5.54,2.18,8.21,3.47,2.19,1.05,4.71,2.7,4.73,5.42,0,2-2.2,5-4.18,2.83a4,4,0,0,1,1-5.88c2.81-1.59,6.37-.31,9,1.09s5.32,3.25,8.44,3.8l-.46-.6-.87,28.51.79-.6c-28.94-9.93-60.82-6.59-89.25-18.43a70.51,70.51,0,0,1-20.21-12.52.63.63,0,0,0-1,.61c2.62,8.59,7.34,16.29,12.55,23.54,5.48,7.64,11.34,15,16.66,22.73,11.09,16.17,20.75,33.27,29.85,50.61,5.13,9.77,10.08,19.62,15,29.47l.54-.94a442.826,442.826,0,0,1-52.28-9q-6.42-1.51-12.79-3.22c-4-1.07-8.27-1.94-12.12-3.51-4.23-1.72-4.91-6.3-6.06-10.24l-3.83-13.07L816,212.23l-7.65-26.15L804.5,173c-1.22-4.17-2.61-8.34-3.56-12.59a20.48,20.48,0,0,1,.53-12.08,24.761,24.761,0,0,1,6.2-8.75c5.71-5.42,13.07-8.5,19.74-12.5a58.2,58.2,0,0,0,5-3.33.63.63,0,0,0,.12-1,33.54,33.54,0,0,0-28.12-9c-2.18.33-4.63.86-6.2,2.54-1.78,1.92-1.39,4.52-1.15,6.9a54.56,54.56,0,0,1-7.4,33.17c-1.29,2.15-3.38,4.35-3.48,7s1.93,5,2.79,7.44c.93,2.67,1.09,6-1,8.18a5.52,5.52,0,0,1-3.34,1.73c-1.21.13-2.64-.27-2.1-1.77a3.34,3.34,0,0,1,5.7-.82c1.86,1.82,2.61,4.63,3.48,7l3.71,10.19c.63,1.73,1.29,3.47,1.89,5.22a10.081,10.081,0,0,1,.75,5.41,3.61,3.61,0,0,1-2.59,2.74c-1.26.35-2.62,0-2.54-1.49a7.48,7.48,0,0,1,5.19-6.6l-.76-.44,4.42,16.24,2.17,8c.59,2.17,1.85,5.82-.54,7.37a2.4,2.4,0,0,1-2.51.21c-1.15-.79-.38-2.11.52-2.69,2.21-1.44,4.17.59,5.16,2.46a65.256,65.256,0,0,1,2.88,7.21c1,2.67,2.07,5.35,3.06,8,.48,1.3,1.14,3,.46,4.33-.44.87-2.14,1.65-2.73.53s.18-2.7.72-3.57a5.47,5.47,0,0,1,3.13-2.39l-.77-.44,7.87,19.22q1,2.42,2,4.81c.57,1.4,1.3,2.93,1.11,4.47-.11.95-1.64,3.06-2.84,2-.45-.4.06-1.44.33-1.91a4.12,4.12,0,0,1,1.81-1.67l-.75-.09c7.39,7.56,4.68,19.15,0,27.34a162.154,162.154,0,0,1-9.2,13.7l-10.53,15L791.4,345h1.08a198.541,198.541,0,0,1-23.75-47.15c-6-16.79-10.25-34.14-13.79-51.59-2-9.81-3.76-19.67-5.47-29.53-.11-.64-1-.56-1.2,0l-12.36,42-6,20.52c-.77,2.62-1.25,7.06-4.73,7.2-2.8.11-4.91-2.55-3.38-5.14,2-3.32,5.88-1.92,7,1.24,1.32,3.6-1,7.21-2.84,10.15l.54-.31a89,89,0,0,1-20.73-2.85,82.183,82.183,0,0,1-9.54-3.08c-1.58-.64-3-1.45-3.18-3.34a27.293,27.293,0,0,1,.62-5.68l5.85-42.94c1.94-14.22,3.78-28.45,5.83-42.66a137.59,137.59,0,0,1,4.09-20,83.06,83.06,0,0,1,19.09-33c4.39-4.66,11-11.87,18.13-9.8l-.44-.77-8.14,44.87c-.07.4.29,1,.77.76l46.7-19.41c.43-.18.69-.89.14-1.14q-8.75-4.07-17.3-8.55-4.15-2.17-8.27-4.46a35.74,35.74,0,0,1-6.67-4.25c-1.89-1.68-3.3-4-2.67-6.59.57-2.41,2.68-4.16,4.7-5.4a39.892,39.892,0,0,1,7.7-3.35,82.839,82.839,0,0,1,29.37-4.66.63.63,0,0,0,0-1.25Z" transform="translate(3057.91 -1096.789)" fill="#231f20"/>
  </g>
</svg>
