<svg xmlns="http://www.w3.org/2000/svg" version="1.1" xmlns:xlink="http://www.w3.org/1999/xlink" xmlns:svgjs="http://svgjs.com/svgjs" width="1042" height="450"><g transform="matrix(1,0,0,1,58,117)"><svg xmlns="http://www.w3.org/2000/svg" version="1.1" xmlns:xlink="http://www.w3.org/1999/xlink" xmlns:svgjs="http://svgjs.com/svgjs" width="127.59533400000001" height="241.398762" viewBox="0 0 425.31778 804.66254"><svg xmlns:dc="http://purl.org/dc/elements/1.1/" xmlns:cc="http://creativecommons.org/ns#" xmlns:rdf="http://www.w3.org/1999/02/22-rdf-syntax-ns#" xmlns:svg="http://www.w3.org/2000/svg" xmlns="http://www.w3.org/2000/svg" xmlns:sodipodi="http://sodipodi.sourceforge.net/DTD/sodipodi-0.dtd" xmlns:inkscape="http://www.inkscape.org/namespaces/inkscape" inkscape:version="1.0 (4035a4fb49, 2020-05-01)" sodipodi:docname="woman.svg" version="1.1" id="SvgjsSvg31529" xml:space="preserve" width="425.31778" height="804.66254" viewBox="0 0 425.31778 804.66254" class="class-hih0ljq5i"><sodipodi:namedview inkscape:current-layer="svg2" inkscape:window-maximized="0" inkscape:window-y="80" inkscape:window-x="278" inkscape:cy="413.99549" inkscape:cx="681.61708" inkscape:zoom="0.40976563" showgrid="false" id="SvgjsSodipodi:namedview31528" inkscape:window-height="814" inkscape:window-width="1536" inkscape:pageshadow="2" inkscape:pageopacity="0" guidetolerance="10" gridtolerance="10" objecttolerance="10" borderopacity="1" bordercolor="#666666" pagecolor="#ffffff"></sodipodi:namedview><metadata id="SvgjsMetadata31527"><rdf:rdf><cc:work rdf:about=""><dc:format>image/svg+xml</dc:format><dc:type rdf:resource="http://purl.org/dc/dcmitype/StillImage"></dc:type><dc:title></dc:title></cc:work></rdf:rdf></metadata><defs id="SvgjsDefs31526"><clipPath clipPathUnits="userSpaceOnUse" id="SvgjsClipPath31525"><path d="M 0,1080 H 1919.999 V 0 H 0 Z" id="SvgjsPath31524"></path></clipPath><clipPath clipPathUnits="userSpaceOnUse" id="SvgjsClipPath31523"><path d="M 0,1080 H 1919.999 V 0 H 0 Z" id="SvgjsPath31522"></path></clipPath></defs><g transform="matrix(1.3333333,0,0,-1.3333333,27.387855,737.53189)" id="SvgjsG31521"><path id="SvgjsPath31520" style="fill-opacity:1;fill-rule:nonzero;stroke:none" d="m 0,0 -6.522,-50.348 h 18 c 7.294,14.922 11.851,11.693 15.13,0 h 49.565 l 5.739,7.827 L 48.26,1.043 Z" class="fill-0"></path></g><g transform="matrix(1.3333333,0,0,-1.3333333,266.16786,732.66349)" id="SvgjsG31519"><path id="SvgjsPath31518" style="fill-opacity:1;fill-rule:nonzero;stroke:none" d="m 0,0 18,-53.999 16.63,6.065 c 0.69,14.54 6.075,14.872 14.674,5.478 l 44.413,16.435 v 9 L 39.326,14.674 Z" class="fill-0"></path></g><g transform="matrix(1.3333333,0,0,-1.3333333,8.9530555,744.14139)" id="SvgjsG31517"><path id="SvgjsPath31516" style="fill-opacity:1;fill-rule:nonzero;stroke:none" d="m 0,0 56.347,313.041 c 45.667,-11.638 78.111,-11.722 97.043,0 L 260.606,28.174 187.042,0 118.173,185.477 86.086,0 Z" class="fill-1"></path></g><g transform="matrix(1.3333333,0,0,-1.3333333,21.474525,727.44599)" id="SvgjsG31515"><path id="SvgjsPath31514" style="fill:none;stroke-width:0.783;stroke-linecap:butt;stroke-linejoin:miter;stroke-miterlimit:10;stroke-dasharray:none;stroke-opacity:1" d="M 0,0 H 69.652" class="stroke-0"></path></g><g transform="matrix(1.3333333,0,0,-1.3333333,260.42893,727.44599)" id="SvgjsG31513"><path id="SvgjsPath31512" style="fill:none;stroke-width:0.783;stroke-linecap:butt;stroke-linejoin:miter;stroke-miterlimit:10;stroke-dasharray:none;stroke-opacity:1" d="M 0,0 61.565,23.739" class="stroke-0"></path></g><g transform="matrix(1.3333333,0,0,-1.3333333,205.13919,35.987118)" id="SvgjsG31511"><path id="SvgjsPath31510" style="fill-opacity:1;fill-rule:nonzero;stroke:none" d="m 0,0 c 18.143,7.051 40.041,-19.006 38.576,-36.849 -1.451,-17.663 9.477,-31.277 9.145,-40.204 -0.429,-11.534 -14.288,-15.683 -18.363,-30.952 l -89.781,11.35 c -10.977,-6.967 2.548,17.733 7.415,30.388 1.927,8.182 -5.55,19.447 -8.098,26.961 -8.162,14.008 8.364,28.195 42.175,33.508 z" class="fill-0"></path></g><g transform="matrix(1.3333333,0,0,-1.3333333,147.38653,158.05991)" id="SvgjsG31509"><path id="SvgjsPath31508" style="fill-opacity:1;fill-rule:nonzero;stroke:none" d="m 0,0 13.7,40.84 c -4.616,0.132 -7.506,6.434 -8.662,12.036 -1.211,5.874 4.653,10.717 7.705,12.579 1.334,16.833 16.904,26.1 28.526,26.1 13.291,0 22.974,-20.155 22.974,-42.452 0,-21.366 -9.816,-38.794 -24.603,-37.995 L 39,-6.782 C 30.782,-24 13.869,-19.284 0,0" class="fill-2"></path></g><g transform="matrix(1.3333333,0,0,-1.3333333,229.39186,65.900448)" id="SvgjsG31507"><path id="SvgjsPath31506" style="fill-opacity:1;fill-rule:nonzero;stroke:none" d="m 0,0 c -5.553,-4.105 -11.942,1.264 -18.701,10.819 -6.763,-14.184 -13.747,-21.209 -20.995,-19.682 -1.861,3.623 -4.846,4.529 -9.065,5.198 0.707,7.457 3.945,15.746 11.64,20.302 C -78.613,57.752 0.416,60.78 -18.189,22.435 -10.097,21.104 -2.828,12.774 0,0" class="fill-0"></path></g><g transform="matrix(1.3333333,0,0,-1.3333333,163.49533,92.305378)" id="SvgjsG31505"><path id="SvgjsPath31504" style="fill:none;stroke-width:0.731;stroke-linecap:butt;stroke-linejoin:miter;stroke-miterlimit:10;stroke-dasharray:none;stroke-opacity:1" d="M 0,0 C -0.163,4.537 0.308,8.134 3.201,8.138" class="stroke-0"></path></g><g transform="matrix(1.3333333,0,0,-1.3333333,171.17239,84.109378)" id="SvgjsG31503"><path id="SvgjsPath31502" style="fill:none;stroke-width:0.731;stroke-linecap:butt;stroke-linejoin:miter;stroke-miterlimit:10;stroke-dasharray:none;stroke-opacity:1" d="M 0,0 C -1.556,1.746 -3.753,2.72 -6.4,3.154" class="stroke-0"></path></g><g transform="matrix(1.3333333,0,0,-1.3333333,200.24013,143.26565)" id="SvgjsG31501"><path id="SvgjsPath31500" style="fill-opacity:1;fill-rule:nonzero;stroke:none" d="M 0,0 -0.641,-17.878 C -10.216,-11.385 -14.844,1.836 -15.467,11.515 -10.845,4.094 -5.751,-0.159 0,0" class="fill-0"></path></g><g transform="matrix(1.3333333,0,0,-1.3333333,226.38399,76.648448)" id="SvgjsG31499"><path id="SvgjsPath31498" style="fill:none;stroke-width:0.731;stroke-linecap:butt;stroke-linejoin:miter;stroke-miterlimit:10;stroke-dasharray:none;stroke-opacity:1" d="M 0,0 -7.731,-0.258" class="stroke-0"></path></g><g transform="matrix(1.3333333,0,0,-1.3333333,204.00119,76.820448)" id="SvgjsG31497"><path id="SvgjsPath31496" style="fill:none;stroke-width:0.731;stroke-linecap:butt;stroke-linejoin:miter;stroke-miterlimit:10;stroke-dasharray:none;stroke-opacity:1" d="M 0,0 H -9.217" class="stroke-0"></path></g><g transform="matrix(1.3333333,0,0,-1.3333333,211.96666,85.119248)" id="SvgjsG31495"><path id="SvgjsPath31494" style="fill:none;stroke-width:0.731;stroke-linecap:butt;stroke-linejoin:miter;stroke-miterlimit:10;stroke-dasharray:none;stroke-opacity:1" d="M 0,0 C 0.554,-8.146 2.498,-18.652 -2.731,-16.99" class="stroke-0"></path></g><g transform="matrix(1.3333333,0,0,-1.3333333,203.85919,115.56645)" id="SvgjsG31493"><path id="SvgjsPath31492" style="fill:none;stroke-width:0.731;stroke-linecap:butt;stroke-linejoin:miter;stroke-miterlimit:10;stroke-dasharray:none;stroke-opacity:1" d="M 0,0 -4.672,5.173" class="stroke-0"></path></g><g transform="matrix(1.3333333,0,0,-1.3333333,195.49079,87.384848)" id="SvgjsG31491"><path id="SvgjsPath31490" style="fill-opacity:1;fill-rule:nonzero;stroke:none" d="M 0,0 C 0,-0.873 0.718,-1.581 1.604,-1.581 2.49,-1.581 3.208,-0.873 3.208,0 3.208,0.873 2.49,1.581 1.604,1.581 0.718,1.581 0,0.873 0,0" class="fill-0"></path></g><g transform="matrix(1.3333333,0,0,-1.3333333,219.09173,88.394578)" id="SvgjsG31489"><path id="SvgjsPath31488" style="fill-opacity:1;fill-rule:nonzero;stroke:none" d="M 0,0 C 0,-0.873 0.718,-1.581 1.604,-1.581 2.49,-1.581 3.208,-0.873 3.208,0 3.208,0.873 2.49,1.581 1.604,1.581 0.718,1.581 0,0.873 0,0" class="fill-0"></path></g><g transform="matrix(1.3333333,0,0,-1.3333333,147.38653,158.05991)" id="SvgjsG31487"><path id="SvgjsPath31486" style="fill-opacity:1;fill-rule:nonzero;stroke:none" d="m 0,0 c -23.58,8.024 -42.909,8.683 -55.043,-3.13 -85.564,-72 -65.217,-171.129 13.565,-151.303 17.293,3.216 37.767,13.446 58.565,24.391 L 3,-81.521 -43.565,-93.651 Z" class="fill-3"></path></g><g transform="matrix(1.3333333,0,0,-1.3333333,368.03892,288.18298)" id="SvgjsG31485"><path id="SvgjsPath31484" style="fill-opacity:1;fill-rule:nonzero;stroke:none" d="m 0,0 c 6.856,-2.125 14.75,-1.781 23.44,0 9.588,1.964 10.425,-0.071 5.266,-5.546 -4.193,-4.451 -5.392,-8.204 -1.019,-10.022 3.7,-1.539 11.314,-5.333 13.418,-8.705 5.685,-9.112 -2.812,-16.978 -10.531,-18.748 -12.212,-2.802 -26.641,-1.209 -41.784,0 z" class="fill-2"></path></g><g transform="matrix(1.3333333,0,0,-1.3333333,290.68932,224.49351)" id="SvgjsG31483"><path id="SvgjsPath31482" style="fill-opacity:1;fill-rule:nonzero;stroke:none" d="m 0,0 c -13.406,15.137 -40.674,45.926 -68.478,43.043 -8.605,-15.489 -22.084,-11.295 -38.999,6.782 l -43.565,-93.651 c 23.233,-40.71 55.914,-53.198 93.13,-32.869 l 10.174,26.217 c 23.436,-24.971 48.439,-34.025 71.858,-41.457 0.246,-0.078 0.458,-0.351 0.637,-0.413 6.231,-2.137 26.323,1.21 26.323,1.21 l 6.932,43.371 C 40.726,-45.985 12.456,-14.064 0,0" class="fill-3"></path></g><g transform="matrix(1.3333333,0,0,-1.3333333,165.45426,317.00858)" id="SvgjsG31481"><path id="SvgjsPath31480" style="fill-opacity:1;fill-rule:nonzero;stroke:none" d="m 0,0 c 11.529,4.797 22.244,9.405 29.476,15.969 2.718,2.468 1.941,8.64 1.727,12.869 -0.356,7.016 -9.468,1.967 -16.949,0.634 -3.209,-0.572 -2.044,1.87 0.525,4.202 4.092,3.714 1.983,6.171 -3.267,4.86 C 3.256,36.473 1.103,35.37 -7.701,27.875 Z" class="fill-2"></path></g><g transform="matrix(1.3333333,0,0,-1.3333333,184.71599,284.73964)" id="SvgjsG31479"><path id="SvgjsPath31478" style="fill:none;stroke-width:0.714;stroke-linecap:butt;stroke-linejoin:miter;stroke-miterlimit:10;stroke-dasharray:none;stroke-opacity:1" d="M 0,0 13.325,0.672" class="stroke-0"></path></g><g transform="matrix(1.3333333,0,0,-1.3333333,186.68546,292.46884)" id="SvgjsG31477"><path id="SvgjsPath31476" style="fill:none;stroke-width:0.714;stroke-linecap:butt;stroke-linejoin:miter;stroke-miterlimit:10;stroke-dasharray:none;stroke-opacity:1" d="M 0,0 10.081,0.79" class="stroke-0"></path></g><g transform="matrix(1.3333333,0,0,-1.3333333,91.126125,247.97205)" id="SvgjsG31475"><path id="SvgjsPath31474" style="fill:none;stroke-width:0.783;stroke-linecap:butt;stroke-linejoin:miter;stroke-miterlimit:10;stroke-dasharray:none;stroke-opacity:1" d="m 0,0 -5.087,-25.63 49.891,12.743 2.527,-8.556" class="stroke-0"></path></g><g transform="matrix(1.3333333,0,0,-1.3333333,158.16919,338.10164)" id="SvgjsG31473"><path id="SvgjsPath31472" style="fill:none;stroke-width:0.783;stroke-linecap:butt;stroke-linejoin:miter;stroke-miterlimit:10;stroke-dasharray:none;stroke-opacity:1" d="M 0,0 12.326,6.065 6.163,15.261" class="stroke-0"></path></g><g transform="matrix(1.3333333,0,0,-1.3333333,236.42959,261.71098)" id="SvgjsG31471"><path id="SvgjsPath31470" style="fill:none;stroke-width:0.783;stroke-linecap:butt;stroke-linejoin:miter;stroke-miterlimit:10;stroke-dasharray:none;stroke-opacity:1" d="M 0,0 -6,-22.278" class="stroke-0"></path></g><g transform="matrix(1.3333333,0,0,-1.3333333,143.90813,163.27671)" id="SvgjsG31469"><path id="SvgjsPath31468" style="fill:none;stroke-width:0.783;stroke-linecap:butt;stroke-linejoin:miter;stroke-miterlimit:10;stroke-dasharray:none;stroke-opacity:1" d="M 0,0 C 17.678,-19.275 32.858,-21.354 45.391,-5.218" class="stroke-0"></path></g><g transform="matrix(1.3333333,0,0,-1.3333333,390.23359,302.24484)" id="SvgjsG31467"><path id="SvgjsPath31466" style="fill:none;stroke-width:0.969;stroke-linecap:butt;stroke-linejoin:miter;stroke-miterlimit:10;stroke-dasharray:none;stroke-opacity:1" d="M 0,0 C -3.793,-6.028 -7.587,-9.821 -11.38,-11.378" class="stroke-0"></path></g><g transform="matrix(1.3333333,0,0,-1.3333333,419.44838,329.25204)" id="SvgjsG31465"><path id="SvgjsPath31464" style="fill:none;stroke-width:0.969;stroke-linecap:butt;stroke-linejoin:miter;stroke-miterlimit:10;stroke-dasharray:none;stroke-opacity:1" d="M 0,0 -14.607,9.709" class="stroke-0"></path></g><g transform="matrix(1.3333333,0,0,-1.3333333,411.97518,337.06391)" id="SvgjsG31463"><path id="SvgjsPath31462" style="fill:none;stroke-width:0.969;stroke-linecap:butt;stroke-linejoin:miter;stroke-miterlimit:10;stroke-dasharray:none;stroke-opacity:1" d="M 0,0 -11.89,6.863" class="stroke-0"></path></g><g transform="matrix(1.3333333,0,0,-1.3333333,188.36253,339.57431)" id="SvgjsG31461"><path id="SvgjsPath31460" style="fill:none;stroke-width:0.783;stroke-linecap:butt;stroke-linejoin:miter;stroke-miterlimit:10;stroke-dasharray:none;stroke-opacity:1" d="M 0,0 -16.482,-115.331" class="stroke-0"></path></g><g transform="matrix(1.3333333,0,0,-1.3333333,17.208795,330.01311)" id="SvgjsG31459"><path id="SvgjsPath31458" style="fill:none;stroke-width:0.783;stroke-linecap:butt;stroke-linejoin:miter;stroke-miterlimit:10;stroke-dasharray:none;stroke-opacity:1" d="M 0,0 C 3.835,-7.329 9.247,-12.277 16.567,-14.342" class="stroke-0"></path></g></svg><style>.class-hih0ljq5i .stroke-0 {
  stroke: #2f3032;
  stroke-width: 2;
}
.class-hih0ljq5i .fill-0 {
  fill: #3B3C3E;
}
.class-hih0ljq5i .stroke-1 {
  stroke: #6d6e6e;
  stroke-width: 2;
}
.class-hih0ljq5i .fill-1 {
  fill: #88898A;
}
.class-hih0ljq5i .stroke-2 {
  stroke: #c78b15;
  stroke-width: 2;
}
.class-hih0ljq5i .fill-2 {
  fill: #F9AE1A;
}
.class-hih0ljq5i .stroke-3 {
  stroke: #7c7d7e;
  stroke-width: 2;
}
.class-hih0ljq5i .fill-3 {
  fill: #9B9C9D;
}
.class-hih0ljq5i .stroke-4 {
  stroke: #c1c1bf;
  stroke-width: 2;
}
.class-hih0ljq5i .fill-4 {
  fill: #F1F1EF;
}</style></svg></g></svg>